{"title":"Formula.1.2015x01.Australia.Race.SkyF1HD.720p50","uid":11757656,"size":10760579701,"categoryP":"video","categoryS":"hd___tv_shows","magnet":"?xt=urn:btih:764ab05a8c1226f0467411e0dd52bb94228bcdf9&amp;dn=Formula.1.2015x01.Australia.Race.SkyF1HD.720p50&amp;tr=udp%3A%2F%2Ftracker.openbittorrent.com%3A80&amp;tr=udp%3A%2F%2Fopen.demonii.com%3A1337&amp;tr=udp%3A%2F%2Ftracker.coppersurfer.tk%3A6969&amp;tr=udp%3A%2F%2Fexodus.desync.com%3A6969","seeders":6,"leechers":4,"uploader":"z97","files":4,"time":1426475393,"description":"â–ˆâ–€------------------------------------------------------------â–€â–ˆ\nâ–ˆ                        RELEASE NOTES                         â–ˆ \nâ–ˆâ–„------------------------------------------------------------â–„â–ˆ                                      \n\n                The 2015 Australian Grand Prix \n                 Melbourne Grand Prix Circuit\n                       Sunday March 15th\n\nâ–ˆâ–€------------------------------------------------------------â–€â–ˆ\nâ–ˆ                     RELEASE INFORMATION                      â–ˆ\nâ–ˆâ–„------------------------------------------------------------â–„â–ˆ\n\n\nVideo\nID                             : 1\nFormat                         : AVC\nFormat/Info                    : Advanced Video Codec\nFormat profile                 : &lt;a class=&quot;__cf_email__&quot; href=&quot;/cdn-cgi/l/email-protection&quot; data-cfemail=&quot;f2ba9b959ab2bec1dcc0&quot;&gt;[email&amp;#160;protected]&lt;/a&gt;&lt;script cf-hash='f9e31' type=&quot;text/javascript&quot;&gt;\n/* &lt;![CDATA[ */!function(){try{var t=&quot;currentScript&quot;in document?document.currentScript:function(){for(var t=document.getElementsByTagName(&quot;script&quot;),e=t.length;e--;)if(t[e].getAttribute(&quot;cf-hash&quot;))return t[e]}();if(t&amp;&amp;t.previousSibling){var e,r,n,i,c=t.previousSibling,a=c.getAttribute(&quot;data-cfemail&quot;);if(a){for(e=&quot;&quot;,r=parseInt(a.substr(0,2),16),n=2;a.length-n;n+=2)i=parseInt(a.substr(n,2),16)^r,e+=String.fromCharCode(i);e=document.createTextNode(e),c.parentNode.replaceChild(e,c)}}}catch(u){}}();/* ]]&gt; */&lt;/script&gt;\nFormat settings, CABAC         : Yes\nFormat settings, ReFrames      : 4 frames\nCodec ID                       : avc1\nCodec ID/Info                  : Advanced Video Coding\nDuration                       : 2h 4mn\nBit rate                       : 5 636 Kbps\nWidth                          : 1 280 pixels\nHeight                         : 720 pixels\nDisplay aspect ratio           : 16:9\nFrame rate mode                : Constant\nFrame rate                     : 50.000 fps\nColor space                    : YUV\nChroma subsampling             : 4:2:0\nBit depth                      : 8 bits\nScan type                      : Progressive\nBits/(Pixel*Frame)             : 0.122\nStream size                    : 4.89 GiB (90%)\nWriting library                : x264 core 130 r2273 b3065e6\nEncoded date                   : UTC 2015-03-15 09:18:12\nTagged date                    : UTC 2015-03-15 10:04:13\n\n\nAudio #1\nID                             : 2\nFormat                         : AAC\nFormat/Info                    : Advanced Audio Codec\nFormat profile                 : LC\nCodec ID                       : 40\nDuration                       : 2h 4mn\nBit rate mode                  : Variable\nBit rate                       : 317 Kbps\nMaximum bit rate               : 555 Kbps\nChannel(s)                     : 6 channels\nChannel positions              : Front: L C R, Side: L R, LFE\nSampling rate                  : 48.0 KHz\nCompression mode               : Lossy\nStream size                    : 282 MiB (5%)\n\n\nAudio #2\nID                             : 3\nFormat                         : AC-3\nFormat/Info                    : Audio Coding 3\nMode extension                 : CM (complete main)\nFormat settings, Endianness    : Big\nCodec ID                       : ac-3\nDuration                       : 2h 4mn\nBit rate mode                  : Constant\nBit rate                       : 320 Kbps\nChannel(s)                     : 6 channels\nChannel positions              : Front: L C R, Side: L R, LFE\nSampling rate                  : 48.0 KHz\nBit depth                      : 16 bits\nCompression mode               : Lossy\nStream size                    : 285 MiB (5%)","torrent":{"xt":"urn:btih:764ab05a8c1226f0467411e0dd52bb94228bcdf9","amp;dn":"Formula.1.2015x01.Australia.Race.SkyF1HD.720p50","amp;tr":["udp%3A%2F%2Ftracker.openbittorrent.com%3A80","udp%3A%2F%2Fopen.demonii.com%3A1337","udp%3A%2F%2Ftracker.coppersurfer.tk%3A6969","udp%3A%2F%2Fexodus.desync.com%3A6969"],"infoHash":"764ab05a8c1226f0467411e0dd52bb94228bcdf9","infoHashBuffer":{"type":"Buffer","data":[118,74,176,90,140,18,38,240,70,116,17,224,221,82,187,148,34,139,205,249]},"announce":[],"urlList":[]}}